<svg xmlns="http://www.w3.org/2000/svg" viewBox="0 0 44 117">
                    <path d="M19.75,66.1 L11.65,66.1 L11.65,86.8 L0.85,86.8 L0.85,30.1 L23.35,30.1 C26.050013,30.1 28.554988,30.5649953 30.865,31.495 C33.175012,32.4250046 35.169992,33.6999919 36.85,35.32 C38.530008,36.9400081 39.849995,38.8149893 40.81,40.945 C41.770005,43.0750106 42.25,45.3099883 42.25,47.65 C42.25,50.8300159 41.620006,53.4699895 40.36,55.57 C39.099994,57.6700105 37.690008,59.3799934 36.13,60.7 C34.329991,62.2600078 32.320011,63.4599958 30.1,64.3 L43.6,86.8 L31.45,86.8 L19.75,66.1 Z M11.65,55.75 L23.35,55.75 C25.630011,55.75 27.549992,54.9850076 29.11,53.455 C30.670008,51.9249923 31.45,50.1400102 31.45,48.1 C31.45,46.0599898 30.670008,44.2750076 29.11,42.745 C27.549992,41.2149923 25.630011,40.45 23.35,40.45 L11.65,40.45 L11.65,55.75 Z" class="letter3" fill="#000000" fill-rule="nonzero" opacity="0.056594"/>
                    <path d="M6.5,30 L6.5,86.8" class="linea3 linea_r" stroke="#F22F2D" stroke-width="11" data-svg-origin="6.5 30" transform="matrix(1,0,0,1,0,0)" style="stroke-dashoffset: 0; stroke-dasharray: none;"/>
                </svg>