<svg xmlns="http://www.w3.org/2000/svg" viewBox="0 0 59 63">
                    <path d="M12,32 C12,35.000015 12.499995,37.7499875 13.5,40.25 C14.500005,42.7500125 15.833325,44.9166575 17.5,46.75 C19.166675,48.5833425 21.1166555,49.999995 23.35,51 C25.5833445,52.000005 27.966654,52.5 30.5,52.5 C32.633344,52.5 34.566658,52.1833365 36.3,51.55 C38.033342,50.9166635 39.5833265,50.0833385 40.95,49.05 C42.3166735,48.0166615 43.4499955,46.8500065 44.35,45.55 C45.2500045,44.2499935 45.966664,42.900007 46.5,41.5 L59,41.5 C58.266663,44.500015 57.066675,47.366653 55.4,50.1 C53.733325,52.833347 51.6833455,55.2166565 49.25,57.25 C46.8166545,59.2833435 44.0166825,60.9166605 40.85,62.15 C37.6833175,63.3833395 34.233352,64 30.5,64 C26.366646,64 22.4500185,63.1833415 18.75,61.55 C15.0499815,59.9166585 11.8166805,57.6500145 9.05,54.75 C6.2833195,51.8499855 4.0833415,48.466686 2.45,44.6 C0.8166585,40.733314 0,36.533356 0,32 C0,27.533311 0.8166585,23.3500195 2.45,19.45 C4.0833415,15.5499805 6.2833195,12.1500145 9.05,9.25 C11.8166805,6.3499855 15.0499815,4.0833415 18.75,2.45 C22.4500185,0.8166585 26.366646,0 30.5,0 C34.100018,0 37.4499845,0.6166605 40.55,1.85 C43.6500155,3.0833395 46.399988,4.7166565 48.8,6.75 C51.200012,8.7833435 53.233325,11.166653 54.9,13.9 C56.566675,16.633347 57.766663,19.499985 58.5,22.5 L46,22.5 C45.599998,21.099993 44.966671,19.7500065 44.1,18.45 C43.233329,17.1499935 42.1500065,15.9833385 40.85,14.95 C39.5499935,13.9166615 38.033342,13.0833365 36.3,12.45 C34.566658,11.8166635 32.633344,11.5 30.5,11.5 C27.966654,11.5 25.5833445,11.999995 23.35,13 C21.1166555,14.000005 19.166675,15.4166575 17.5,17.25 C15.833325,19.0833425 14.500005,21.2499875 13.5,23.75 C12.499995,26.2500125 12,28.999985 12,32 Z" class="letter3" fill="#000000" opacity="0.056594122"/>
                    <path d="M45,45 C45,30.6405965 33.3594035,19 19,19 C4.64059651,19 -7,30.6405965 -7,45" class="line3-c linea3" fill="none" stroke="#FFD753" stroke-width="11.3255997" transform="translate(19.000000, 32.000000) rotate(-90.000000) translate(-19.000000, -32.000000) " style="stroke-dashoffset: 2e-05; stroke-dasharray: none;"/>
                </svg>